<mxfile host="app.diagrams.net" agent="Mozilla/5.0 (Windows NT 10.0; Win64; x64) AppleWebKit/537.36 (KHTML, like Gecko) Chrome/133.0.0.0 Safari/537.36" version="26.0.15">
  <diagram id="C5RBs43oDa-KdzZeNtuy" name="Page-1">
    <mxGraphModel dx="1434" dy="738" grid="1" gridSize="10" guides="1" tooltips="1" connect="1" arrows="1" fold="1" page="1" pageScale="1" pageWidth="827" pageHeight="1169" math="0" shadow="0">
      <root>
        <mxCell id="WIyWlLk6GJQsqaUBKTNV-0" />
        <mxCell id="WIyWlLk6GJQsqaUBKTNV-1" parent="WIyWlLk6GJQsqaUBKTNV-0" />
        <mxCell id="nTD9x5rFDWJhzKr3BdDn-3" value="" style="edgeStyle=orthogonalEdgeStyle;rounded=0;orthogonalLoop=1;jettySize=auto;html=1;" edge="1" parent="WIyWlLk6GJQsqaUBKTNV-1" source="VFeOhNK9SngXCWhSIrXT-1" target="nTD9x5rFDWJhzKr3BdDn-0">
          <mxGeometry relative="1" as="geometry" />
        </mxCell>
        <mxCell id="VFeOhNK9SngXCWhSIrXT-1" value="start" style="ellipse;whiteSpace=wrap;html=1;aspect=fixed;" parent="WIyWlLk6GJQsqaUBKTNV-1" vertex="1">
          <mxGeometry x="130" y="60" width="80" height="80" as="geometry" />
        </mxCell>
        <mxCell id="nTD9x5rFDWJhzKr3BdDn-4" value="" style="edgeStyle=orthogonalEdgeStyle;rounded=0;orthogonalLoop=1;jettySize=auto;html=1;" edge="1" parent="WIyWlLk6GJQsqaUBKTNV-1" source="nTD9x5rFDWJhzKr3BdDn-0" target="nTD9x5rFDWJhzKr3BdDn-1">
          <mxGeometry relative="1" as="geometry" />
        </mxCell>
        <mxCell id="nTD9x5rFDWJhzKr3BdDn-0" value="run int 1-25" style="shape=parallelogram;perimeter=parallelogramPerimeter;whiteSpace=wrap;html=1;fixedSize=1;" vertex="1" parent="WIyWlLk6GJQsqaUBKTNV-1">
          <mxGeometry x="110" y="220" width="120" height="60" as="geometry" />
        </mxCell>
        <mxCell id="nTD9x5rFDWJhzKr3BdDn-5" value="" style="edgeStyle=orthogonalEdgeStyle;rounded=0;orthogonalLoop=1;jettySize=auto;html=1;" edge="1" parent="WIyWlLk6GJQsqaUBKTNV-1" source="nTD9x5rFDWJhzKr3BdDn-1" target="nTD9x5rFDWJhzKr3BdDn-2">
          <mxGeometry relative="1" as="geometry" />
        </mxCell>
        <mxCell id="nTD9x5rFDWJhzKr3BdDn-1" value="if int multiple of 3&lt;div&gt;print fizz&lt;/div&gt;" style="shape=parallelogram;perimeter=parallelogramPerimeter;whiteSpace=wrap;html=1;fixedSize=1;" vertex="1" parent="WIyWlLk6GJQsqaUBKTNV-1">
          <mxGeometry x="110" y="350" width="150" height="60" as="geometry" />
        </mxCell>
        <mxCell id="nTD9x5rFDWJhzKr3BdDn-7" value="" style="edgeStyle=orthogonalEdgeStyle;rounded=0;orthogonalLoop=1;jettySize=auto;html=1;" edge="1" parent="WIyWlLk6GJQsqaUBKTNV-1" source="nTD9x5rFDWJhzKr3BdDn-2" target="nTD9x5rFDWJhzKr3BdDn-6">
          <mxGeometry relative="1" as="geometry" />
        </mxCell>
        <mxCell id="nTD9x5rFDWJhzKr3BdDn-2" value="if int is multiple of 5&lt;div&gt;print buzz&lt;/div&gt;" style="shape=parallelogram;perimeter=parallelogramPerimeter;whiteSpace=wrap;html=1;fixedSize=1;" vertex="1" parent="WIyWlLk6GJQsqaUBKTNV-1">
          <mxGeometry x="110" y="450" width="150" height="60" as="geometry" />
        </mxCell>
        <mxCell id="nTD9x5rFDWJhzKr3BdDn-10" style="edgeStyle=orthogonalEdgeStyle;rounded=0;orthogonalLoop=1;jettySize=auto;html=1;exitX=1;exitY=0.5;exitDx=0;exitDy=0;" edge="1" parent="WIyWlLk6GJQsqaUBKTNV-1" source="nTD9x5rFDWJhzKr3BdDn-6" target="nTD9x5rFDWJhzKr3BdDn-8">
          <mxGeometry relative="1" as="geometry" />
        </mxCell>
        <mxCell id="nTD9x5rFDWJhzKr3BdDn-6" value="in int is multiple if 3 and 5&amp;nbsp;&lt;div&gt;print fizzbuzz&lt;/div&gt;" style="shape=parallelogram;perimeter=parallelogramPerimeter;whiteSpace=wrap;html=1;fixedSize=1;" vertex="1" parent="WIyWlLk6GJQsqaUBKTNV-1">
          <mxGeometry x="110" y="560" width="180" height="60" as="geometry" />
        </mxCell>
        <mxCell id="nTD9x5rFDWJhzKr3BdDn-11" style="edgeStyle=orthogonalEdgeStyle;rounded=0;orthogonalLoop=1;jettySize=auto;html=1;exitX=0.5;exitY=0;exitDx=0;exitDy=0;exitPerimeter=0;" edge="1" parent="WIyWlLk6GJQsqaUBKTNV-1" source="nTD9x5rFDWJhzKr3BdDn-8" target="nTD9x5rFDWJhzKr3BdDn-9">
          <mxGeometry relative="1" as="geometry" />
        </mxCell>
        <mxCell id="nTD9x5rFDWJhzKr3BdDn-8" value="display results" style="strokeWidth=2;html=1;shape=mxgraph.flowchart.display;whiteSpace=wrap;" vertex="1" parent="WIyWlLk6GJQsqaUBKTNV-1">
          <mxGeometry x="430" y="570" width="100" height="60" as="geometry" />
        </mxCell>
        <mxCell id="nTD9x5rFDWJhzKr3BdDn-9" value="end" style="strokeWidth=2;html=1;shape=mxgraph.flowchart.terminator;whiteSpace=wrap;" vertex="1" parent="WIyWlLk6GJQsqaUBKTNV-1">
          <mxGeometry x="430" y="400" width="100" height="60" as="geometry" />
        </mxCell>
      </root>
    </mxGraphModel>
  </diagram>
</mxfile>
